<svg id="Layer_1" data-name="Layer 1" xmlns="http://www.w3.org/2000/svg" viewBox="0 0 128.22 33"><defs><style>.cls-1{fill:#fff;}</style></defs><title>tsel</title><path class="cls-1" d="M57.8,6.82A7.47,7.47,0,0,0,50,14.5a7.47,7.47,0,0,0,7.77,7.69,7.48,7.48,0,0,0,7.77-7.69A7.47,7.47,0,0,0,57.8,6.82Zm0,11.93C55.52,18.75,54,17,54,14.5s1.53-4.24,3.81-4.24,3.81,1.7,3.81,4.24S60.08,18.75,57.8,18.75Z"/><path class="cls-1" d="M43.68,14.59a.1.1,0,0,1,0-.2,3.92,3.92,0,0,0,2-1.36l4.88-6H46l-5.45,6.69V.82h-4V22h4V15.12l4.7,5.49A3.55,3.55,0,0,0,48.23,22H51.1l-5.34-6.18A3.7,3.7,0,0,0,43.68,14.59Z"/><path class="cls-1" d="M84.93,6.82A5.45,5.45,0,0,0,80.16,9.4c-.76-1.69-2.28-2.58-4.52-2.58a3.94,3.94,0,0,0-3.79,2c-.07.17-.21.21-.27,0a2.27,2.27,0,0,0-2.22-1.73H67.69V22h4V14.39c0-2.59,1.06-4.19,2.91-4.19,1.57,0,2.42,1,2.42,2.71V22h4v-7.6c0-2.57,1-4.16,2.88-4.16,1.59,0,2.48,1,2.48,2.71V22h4V11.89A5,5,0,0,0,84.93,6.82Z"/><path class="cls-1" d="M33.8,3.11A2.29,2.29,0,0,0,31.51.82H29.84V19.23a2.67,2.67,0,0,0,2.83,3,4.54,4.54,0,0,0,1.85-.41,5.94,5.94,0,0,1-.72-3.26Z"/><path class="cls-1" d="M10.88,5.45a4,4,0,0,0-4-3.94H3.18A2.28,2.28,0,0,0,.89,3.8V5.61H6.83V19.23a2.7,2.7,0,0,0,2.88,3,4.72,4.72,0,0,0,1.89-.41,5.94,5.94,0,0,1-.72-3.26Z"/><path class="cls-1" d="M16.83,4.72V1.51H9.63a.1.1,0,0,0-.05.19,4.19,4.19,0,0,1,2,3,1,1,0,0,0,1,.89h3.3A.9.9,0,0,0,16.83,4.72Z"/><path class="cls-1" d="M99,12.85c-2-.52-2.67-.95-2.67-1.61,0-.88.72-1.38,2.24-1.38A8.09,8.09,0,0,1,103,11.21V8a9.06,9.06,0,0,0-4.63-1.17c-3.65,0-5.9,1.92-5.9,4.55s2.25,3.77,4.66,4.44c2,.59,3,.91,3,1.8s-.77,1.52-2.45,1.52a7.65,7.65,0,0,1-5.09-1.92V20.7a9.15,9.15,0,0,0,5.25,1.49c3.84,0,6.09-1.84,6.09-4.66C104,14.49,101.36,13.46,99,12.85Z"/><path class="cls-1" d="M20.82,6.82c-4.06,0-7.39,3-7.39,7.74,0,4.49,3,7.63,8,7.63a9.83,9.83,0,0,0,5.17-1.44V17.37A8.38,8.38,0,0,1,21.9,19c-2.46,0-4.16-1-4.67-3.33H27.57a13.37,13.37,0,0,0,.1-1.4C27.67,9.38,24.53,6.82,20.82,6.82Zm-3.46,6.09a3.54,3.54,0,0,1,3.43-3.13c1.64,0,2.89,1.09,3.06,3.13Z"/><path class="cls-1" d="M112.58,6.82c-4.06,0-7.39,3-7.39,7.74,0,4.49,3,7.63,8,7.63a9.78,9.78,0,0,0,5.17-1.44V17.37a8.36,8.36,0,0,1-4.74,1.6c-2.46,0-4.15-1-4.67-3.33h10.34a13.41,13.41,0,0,0,.11-1.4C119.44,9.38,116.29,6.82,112.58,6.82Zm-3.45,6.09a3.53,3.53,0,0,1,3.42-3.13c1.65,0,2.89,1.09,3.06,3.13Z"/><path class="cls-1" d="M125.56,18.52V3.11A2.29,2.29,0,0,0,123.27.82H121.6V19.23a2.67,2.67,0,0,0,2.83,3,4.54,4.54,0,0,0,1.85-.41A6,6,0,0,1,125.56,18.52Z"/><path class="cls-1" d="M121.25,27.56a2.31,2.31,0,1,0,2.39,2.31A2.35,2.35,0,0,0,121.25,27.56Zm-.13.74a1.48,1.48,0,1,1-1.55,1.47A1.51,1.51,0,0,1,121.12,28.3ZM122.85,25a.4.4,0,0,0-.21.07.63.63,0,0,0-.19.24l-.63,1.36a.92.92,0,0,1-.2.31c-.05.05-.11.1-.18.08s-.1-.06-.13-.13a2.45,2.45,0,0,1,0-.38,3.77,3.77,0,0,0,0-.58c0-.09-.11-.28-.23-.29s-.32.27-.4.43a2.87,2.87,0,0,0-.24,1.4v.19a3.57,3.57,0,0,1,.4-.11l.24,0h.49l.24,0a2.13,2.13,0,0,1,.45.13,3.17,3.17,0,0,1,.41.21,3.07,3.07,0,0,1,.35.28,1.93,1.93,0,0,1,.29.35,1.87,1.87,0,0,1,.22.39,2.16,2.16,0,0,1,.14.43,1.85,1.85,0,0,1,0,.23,2.88,2.88,0,0,1,0,.48,2.23,2.23,0,0,1,0,.23,2.16,2.16,0,0,1-.14.43l-.07.16h0a2.81,2.81,0,0,0,.81.07,2.85,2.85,0,0,0,1.26-.26c.13-.07.3-.17.3-.31s-.13-.23-.24-.3a1.12,1.12,0,0,0-.41-.1c-.2,0-.37,0-.58,0s-.42-.05-.45-.22.17-.32.29-.44a9.83,9.83,0,0,1,.83-.61,10.69,10.69,0,0,0,.89-.75,1.6,1.6,0,0,0,.25-.27.55.55,0,0,0,.09-.28.16.16,0,0,0-.08-.14.41.41,0,0,0-.27-.05.94.94,0,0,0-.28.06,6.36,6.36,0,0,0-.75.34,3.22,3.22,0,0,1-.55.29c-.11,0-.29.11-.36,0s0-.24.09-.35a3.59,3.59,0,0,1,.37-.63c.15-.24.32-.45.45-.69a1.12,1.12,0,0,0,.17-.37.47.47,0,0,0,0-.29.23.23,0,0,0-.13-.11.52.52,0,0,0-.3.06,1.54,1.54,0,0,0-.42.3c-.35.36-.63.68-1,1-.11.12-.26.32-.41.26s-.08-.22-.07-.33c0-.33.11-.67.15-1a2.67,2.67,0,0,0,0-.48.48.48,0,0,0-.07-.23.27.27,0,0,0-.16-.08Zm-1.73,3.28a1.55,1.55,0,0,0-.31,0,1.38,1.38,0,0,0-.29.08h0a4.62,4.62,0,0,0,.7,1.29,4,4,0,0,0,1.17.9h0l0,0,.14-.25a1.31,1.31,0,0,0,.09-.28,1.51,1.51,0,0,0,0-.6,1.43,1.43,0,0,0-.09-.27,1.43,1.43,0,0,0-.33-.47,1.3,1.3,0,0,0-.23-.18,1.71,1.71,0,0,0-.27-.14l-.29-.08A1.55,1.55,0,0,0,121.12,28.3Zm1.27,2.32,0,0,.14-.25a1.31,1.31,0,0,0,.09-.28,1.51,1.51,0,0,0,0-.6,1.43,1.43,0,0,0-.09-.27,1.43,1.43,0,0,0-.33-.47,1.3,1.3,0,0,0-.23-.18,1.71,1.71,0,0,0-.27-.14l-.29-.08a1.62,1.62,0,0,0-.62,0l-.29.08h0a3.26,3.26,0,0,1-.15-.7,2,2,0,0,1,.4-.11l.24,0h.49l.24,0a2.32,2.32,0,0,1,.45.13,3.17,3.17,0,0,1,.41.21,3.07,3.07,0,0,1,.35.28,1.93,1.93,0,0,1,.29.35,1.87,1.87,0,0,1,.22.39,2.16,2.16,0,0,1,.14.43,1.85,1.85,0,0,1,0,.23,1.93,1.93,0,0,1,0,.24,1.69,1.69,0,0,1,0,.23,2,2,0,0,1,0,.24,2.16,2.16,0,0,1-.14.43l-.07.16A4.34,4.34,0,0,1,122.39,30.62ZM98.32,28.78a.16.16,0,0,0-.16.17v1.89a.16.16,0,0,0,.16.17.17.17,0,0,0,.17-.17V29A.17.17,0,0,0,98.32,28.78Zm.65,0a.16.16,0,0,0-.17.17v1.89A.16.16,0,0,0,99,31a.16.16,0,0,0,.16-.17V30.6l.26-.24.51.6a.16.16,0,0,0,.22,0,.17.17,0,0,0,0-.23l-.5-.62.48-.45a.16.16,0,0,0-.24-.22l-.74.69V29a.16.16,0,0,0-.16-.17Zm-3.89.12a.15.15,0,0,0-.14.15.15.15,0,0,0,.14.16h.58v1.65a.16.16,0,0,0,.16.15.17.17,0,0,0,.17-.15V29.21h.6a.15.15,0,0,0,.14-.16.15.15,0,0,0-.14-.15Zm6,.48a.83.83,0,1,0,.85.83A.84.84,0,0,0,101.05,29.38Zm2.84,0h-.14a1.09,1.09,0,0,0-.25.1l-.17.11a.54.54,0,0,0-.3-.2l-.14,0a.54.54,0,0,0-.25,0,1.13,1.13,0,0,0-.24.15h0a.15.15,0,0,0-.16-.15.16.16,0,0,0-.17.17v1.26a.17.17,0,0,0,.17.17.16.16,0,0,0,.16-.17V30a.35.35,0,0,1,.18-.29.48.48,0,0,1,.17-.05.65.65,0,0,1,.18,0,.3.3,0,0,1,.2.31v.81a.16.16,0,0,0,.17.17.16.16,0,0,0,.16-.17V30a.38.38,0,0,1,.15-.24.33.33,0,0,1,.22-.06.3.3,0,0,1,.18,0,.29.29,0,0,1,.1.12.21.21,0,0,1,0,.13h0v.84a.16.16,0,0,0,.16.17.18.18,0,0,0,.17-.17v-.9a.45.45,0,0,0-.11-.31.62.62,0,0,0-.34-.22Zm-6.68,0a.82.82,0,0,0,0,1.64.73.73,0,0,0,.62-.2.2.2,0,0,0,0-.25.17.17,0,0,0-.21,0,.73.73,0,0,1-.43.16.42.42,0,0,1-.44-.38h.93a.26.26,0,0,0,.19-.06.24.24,0,0,0,.07-.13.75.75,0,0,0-.76-.78Zm3.83.29a.54.54,0,1,1-.52.54A.54.54,0,0,1,101,29.68Zm-3.85,0a.38.38,0,0,1,.41.37h-.83a.4.4,0,0,1,.42-.37Zm12.06-.91a.16.16,0,0,0-.16.16v.7a.61.61,0,0,0-.53-.26.79.79,0,0,0-.81.83.78.78,0,0,0,.79.81.63.63,0,0,0,.55-.28v.11a.16.16,0,1,0,.32,0V28.93a.16.16,0,0,0-.16-.16Zm-3.64.08a.17.17,0,0,0-.16.17v1.81a.16.16,0,0,0,.16.16.16.16,0,0,0,.15-.16V29A.17.17,0,0,0,105.61,28.85Zm9.77.51a.83.83,0,0,0-.32.07.48.48,0,0,0-.2.17.42.42,0,0,0-.07.24.37.37,0,0,0,.07.23.53.53,0,0,0,.2.16,3,3,0,0,0,.32.11.85.85,0,0,1,.24.09.16.16,0,0,1,0,.28.33.33,0,0,1-.2,0,.53.53,0,0,1-.21,0l-.13-.06L115,30.6s-.07,0-.11,0a.18.18,0,0,0-.1.09.1.1,0,0,0,0,.09.23.23,0,0,0,.09.11.88.88,0,0,0,.22.1,1,1,0,0,0,.31.05,1,1,0,0,0,.33-.05.4.4,0,0,0,.22-.18.38.38,0,0,0,.07-.25.59.59,0,0,0,0-.2.61.61,0,0,0-.16-.16,2.18,2.18,0,0,0-.27-.11l-.22-.09s-.1,0-.13-.07a.13.13,0,0,1,0-.11.2.2,0,0,1,.06-.12.37.37,0,0,1,.18,0,.3.3,0,0,1,.16,0,.52.52,0,0,1,.13.06.49.49,0,0,0,.16.05.17.17,0,0,0,.14-.05.17.17,0,0,0,0-.14.43.43,0,0,0-.12-.11.68.68,0,0,0-.2-.07A.82.82,0,0,0,115.38,29.36Zm-4.94,0a.83.83,0,1,0,.85.83A.84.84,0,0,0,110.44,29.36Zm3.5,0a.82.82,0,0,0,0,1.64.73.73,0,0,0,.62-.21.19.19,0,0,0,0-.25.2.2,0,0,0-.21,0,.67.67,0,0,1-.43.16.42.42,0,0,1-.44-.38h.93a.33.33,0,0,0,.19,0,.27.27,0,0,0,.07-.14A.74.74,0,0,0,113.94,29.37Zm3.54,0a1,1,0,0,0-.33.05.32.32,0,0,0-.16.09.15.15,0,0,0,0,.13s0,.07.08.09.17,0,.3-.06a.58.58,0,0,1,.48,0c.08.07.11.28.12.3l-.11,0h-.24a1.56,1.56,0,0,0-.31,0,.73.73,0,0,0-.29.11.55.55,0,0,0-.15.24.5.5,0,0,0,0,.34.43.43,0,0,0,.24.24.77.77,0,0,0,.34.08.72.72,0,0,0,.4-.12.41.41,0,0,0,.1-.11v.07a.16.16,0,0,0,.16.15.15.15,0,0,0,.15-.15v-.42a6.06,6.06,0,0,0,0-.62.57.57,0,0,0-.16-.27.56.56,0,0,0-.2-.11A1.13,1.13,0,0,0,117.48,29.37Zm-10.61,0-.2,0a1.82,1.82,0,0,0-.26.15h0a.13.13,0,0,0-.15-.15c-.12,0-.15.09-.15.18v1.27a.17.17,0,0,0,.16.17.17.17,0,0,0,.17-.17V30a.35.35,0,0,1,.18-.29.29.29,0,0,1,.16,0,.42.42,0,0,1,.19,0,.34.34,0,0,1,.23.32v.81a.17.17,0,0,0,.16.17.17.17,0,0,0,.17-.17V30a.66.66,0,0,0-.12-.4.7.7,0,0,0-.33-.2h-.21Zm5.41,0-.2,0a1.82,1.82,0,0,0-.26.15h0c0-.06,0-.15-.15-.15s-.15.09-.15.18v1.27a.17.17,0,0,0,.17.17.17.17,0,0,0,.16-.17V30a.35.35,0,0,1,.18-.29.33.33,0,0,1,.17,0,.38.38,0,0,1,.18,0,.34.34,0,0,1,.23.32v.81a.17.17,0,0,0,.17.17.17.17,0,0,0,.16-.17V30a.66.66,0,0,0-.12-.4.7.7,0,0,0-.33-.2h-.21Zm4.14,0a.16.16,0,0,0-.16.16v1.29a.16.16,0,0,0,.32,0V29.55A.16.16,0,0,0,116.42,29.39Zm-2.51.26a.38.38,0,0,1,.41.38h-.82A.39.39,0,0,1,113.91,29.65Zm-3.47,0a.54.54,0,1,1-.52.54A.53.53,0,0,1,110.44,29.66Zm-1.87,0a.53.53,0,0,1,.52.54.49.49,0,0,1-.51.51.5.5,0,0,1-.51-.51A.51.51,0,0,1,108.57,29.66Zm8.92.56a1.32,1.32,0,0,1,.28,0l.16,0a.53.53,0,0,1,0,.2.42.42,0,0,1-.16.23.62.62,0,0,1-.3.06.37.37,0,0,1-.23-.07.21.21,0,0,1-.1-.17.22.22,0,0,1,.08-.22A.41.41,0,0,1,117.49,30.22Zm-24.41-.16a.44.44,0,0,1,.45.48.46.46,0,0,1-.45.49.4.4,0,0,1-.35-.19V31h-.15V29.75h.15v.5A.41.41,0,0,1,93.08,30.06Zm0,.14a.35.35,0,1,0,.32.34A.32.32,0,0,0,93.05,30.2Zm1.33-.12h.16L94,31.46h-.16L94,31l-.38-.92h.17l.3.76Z"/></svg>